<?xml version="1.0" encoding="UTF-8"?> <svg xmlns="http://www.w3.org/2000/svg" width="100" height="28" viewBox="0 0 100 28" fill="none"> <g clip-path="url(#clip0)"> <path d="M43.8045 18.7841H40.5061V14.8479H43.8045C45.0516 14.8479 45.909 15.6075 45.909 16.8547C45.909 18.1017 45.0516 18.7841 43.8045 18.7841ZM38.0701 18.7841H34.7719C33.5248 18.7841 32.6673 18.1017 32.6673 16.8547C32.6673 15.6075 33.5248 14.8479 34.7719 14.8479H38.0701V18.7841ZM43.9019 12.6267H34.6743C32.1413 12.6267 30.2317 14.3222 30.2317 16.8547C30.2317 19.3878 32.1413 21.0053 34.6743 21.0053H38.0701V23.402H40.5061V21.0053H43.9019C46.435 21.0053 48.3447 19.3878 48.3447 16.8547C48.3447 14.3222 46.435 12.6267 43.9019 12.6267Z" fill="white"></path> <path d="M52.7118 19.6412H57.5054L55.5568 14.7894H54.7188L52.7118 19.6412ZM57.1545 12.6267L61.7337 23.402H59.1616L58.4601 21.7656H51.8157L51.1141 23.402H48.5029L53.1991 12.6267H57.1545Z" fill="white"></path> <path d="M65.9062 18.7841H69.7251C70.9722 18.7841 71.8297 18.1017 71.8297 16.8547C71.8297 15.6075 70.9722 14.8479 69.7251 14.8479H65.9062V18.7841ZM69.8227 12.6267C72.3557 12.6267 74.2653 14.3222 74.2653 16.8547C74.2653 19.3878 72.3557 21.0053 69.8227 21.0053H65.9062V23.402H63.4702V12.6267H69.8227Z" fill="white"></path> <path d="M78.5346 18.7841H82.3536C83.6005 18.7841 84.4581 18.1017 84.4581 16.8547C84.4581 15.6075 83.6005 14.8479 82.3536 14.8479H78.5346V18.7841ZM82.4509 12.6267C84.9841 12.6267 86.8938 14.3222 86.8938 16.8547C86.8938 19.3878 84.9841 21.0053 82.4509 21.0053H78.5346V23.402H76.0986V12.6267H82.4509Z" fill="white"></path> <path d="M93.9591 21.5901C95.9857 21.5901 97.5638 20.2455 97.5638 18.0243C97.5638 15.8026 95.9857 14.458 93.9591 14.458C91.9326 14.458 90.3543 15.8026 90.3543 18.0243C90.3543 20.2455 91.9326 21.5901 93.9591 21.5901ZM93.9591 23.6748C90.6855 23.6748 87.9187 21.4146 87.9187 18.0243C87.9187 14.6334 90.6855 12.3732 93.9591 12.3732C97.2326 12.3732 99.9994 14.6334 99.9994 18.0243C99.9994 21.4146 97.2326 23.6748 93.9591 23.6748Z" fill="white"></path> <path d="M15.6506 13.0623L17.9908 17.5074L18.0455 11.6027L15.6506 13.0623Z" fill="white"></path> <path d="M13.0717 14.6537V14.6284L13.0501 14.641L13.0285 14.6284V14.6537L8.31068 17.42L8.16177 17.5075L10.5021 13.0623L8.10718 11.6027L8.16177 17.5075L8.14833 17.5154L13.0285 20.3227V20.3477L13.0501 20.3351L13.0717 20.3477V20.3227L17.9519 17.5154L17.7895 17.42L13.0717 14.6537Z" fill="white"></path> <path d="M13.0284 14.6284L13.05 14.6152L13.0716 14.6284L13.0716 14.6021L15.598 13.0623L13.0582 7.55479L13.0581 7.51948L13.05 7.53706L13.0419 7.51948L13.0418 7.55479L10.502 13.0623L13.0284 14.6021L13.0284 14.6284Z" fill="white"></path> <path d="M2.11694 5.03392H5.20659V20.0502H2.11694V5.03392Z" fill="white"></path> <path d="M2.23872 3.07169C1.77847 3.07169 1.40538 2.6986 1.40538 2.23848C1.40538 1.77822 1.77847 1.40498 2.23872 1.40498C2.69896 1.40498 3.07211 1.77822 3.07211 2.23848C3.07211 2.6986 2.69896 3.07169 2.23872 3.07169ZM4.65088 1.38754C4.75182 1.96469 4.56903 2.54774 4.17896 2.9625C4.44908 2.50105 4.51656 1.92657 4.31421 1.38754H4.30964C3.9747 0.573246 3.17387 -0.000350952 2.23878 -0.000350952H2.23872C1.00233 -0.000350952 0 1.00204 0 2.23848C0 3.47478 1.00233 4.47717 2.23872 4.47717H3.29646H4.47748H20.3155V1.38754H4.65088Z" fill="white"></path> <path d="M23.4051 22.926H20.3154V7.90964H23.4051V22.926Z" fill="white"></path> <path d="M23.2834 24.8881C23.7435 24.8881 24.1167 25.2612 24.1167 25.7215C24.1167 26.1817 23.7435 26.5548 23.2834 26.5548C22.8231 26.5548 22.45 26.1817 22.45 25.7215C22.45 25.2612 22.8231 24.8881 23.2834 24.8881ZM20.8712 26.5724C20.7703 25.9953 20.9531 25.4121 21.343 24.9975C21.0729 25.4588 21.0055 26.0332 21.2078 26.5724H21.2124C21.5473 27.3867 22.3482 27.9603 23.2834 27.9603C24.5197 27.9603 25.5221 26.9579 25.5221 25.7215C25.5221 24.4851 24.5197 23.4828 23.2834 23.4828H22.2256H21.0445H5.20654V26.5724H20.8712Z" fill="white"></path> </g> <defs> <clipPath id="clip0"> <rect width="100" height="27.9603" fill="white"></rect> </clipPath> </defs> </svg> 