<svg id="Слой_1" data-name="Слой 1" xmlns="http://www.w3.org/2000/svg" viewBox="0 0 238.66 307.35"><defs><style>.cls-1{fill:#e41613;}.cls-2{fill:#fff;}</style></defs><path class="cls-1" d="M370.07,351.33a87.53,87.53,0,0,0-3.44-9.1q-22.87-43.73-45.92-87.36c-1.69-3.22-3.3-6.48-5.44-10.69l55.41-33.76c.6,3.25,1.32,5.31,1.31,7.37q-.48,61.83-1.13,123.66c0,2.48-.3,4.94-.54,7.4-.08.83-.16,1.65-.23,2.47h0Z" transform="translate(-133.33 -111.77)"/><path d="M370.08,351.33Z" transform="translate(-133.33 -111.77)"/><path class="cls-2" d="M366.63,342.23c1.49,2.85,2.31,6,3.44,9.1h0q-57.4-33.48-114.77-67c-.84-.49-1.36-1.52-2.29-2.8l-.43-.56L313,244l2.29.22c2.14,4.21,3.75,7.47,5.44,10.69Q343.67,298.55,366.63,342.23Z" transform="translate(-133.33 -111.77)"/><path class="cls-1" d="M252.49,282.23l.52-.71c.93,1.28,1.45,2.31,2.29,2.8q57.34,33.57,114.77,67l-118.13,67.8L134.49,351.55Z" transform="translate(-133.33 -111.77)"/><path class="cls-1" d="M252.49,282.23c-10.54-7.76-21-13.29-31-19.52S201.66,250.54,191,244l61-132.22c20.76,45,40.66,88.17,61,132.23l-60.4,37,.43.56Z" transform="translate(-133.33 -111.77)"/><path class="cls-1" d="M133.33,209.66l56.75,34.63L136.54,346l-2.14-.37C133.58,301.1,133.77,256.56,133.33,209.66Z" transform="translate(-133.33 -111.77)"/></svg>