<svg width="808" height="884" viewBox="0 0 808 884" fill="none" xmlns="http://www.w3.org/2000/svg">
<g clip-path="url(#clip0_9_4)">
<path d="M736.55 839.624C743.465 839.625 750.102 836.902 755.025 832.046C759.948 827.189 762.76 820.589 762.854 813.673C763.033 798.845 751.537 787.15 736.776 787.079C729.86 787.017 723.201 789.691 718.248 794.518C713.295 799.346 710.45 805.935 710.334 812.851C710.114 827.328 722.069 839.541 736.55 839.624ZM798.13 778.22C811.574 801.788 811.348 826.238 797.391 849.532C783.584 872.576 762.491 884.163 735.495 883.978C721.506 883.884 707.867 879.597 696.339 871.672C684.811 863.746 675.923 852.546 670.824 839.517C665.838 826.869 666.166 813.9 670.312 801.049C670.794 799.542 671.39 798.07 671.914 796.581C671.968 796.42 671.872 796.212 671.688 794.836C661.436 808.502 658.13 823.146 660.114 839.1C655.718 840.458 178.219 841.09 165.74 839.797C164.608 835.627 164.197 752.019 165.371 742.32H217.396C389.993 742.32 562.589 742.334 735.186 742.361C762.813 742.373 784.418 754.199 798.13 778.22Z" fill="#E41613"/>
<path d="M739.82 250.179V723.262C735.781 724.62 654.08 725.174 643.846 723.911C642.655 719.741 642.274 257.858 643.584 250.185L739.82 250.179Z" fill="#E41613"/>
<path d="M44.6233 70.5169C44.6637 77.4307 47.4212 84.0512 52.3004 88.949C57.1796 93.8468 63.789 96.6288 70.7016 96.6944C85.1822 96.7838 97.2207 84.7257 97.1432 70.1893C97.0947 63.2698 94.3187 56.6489 89.4181 51.7644C84.5176 46.8798 77.8882 44.1261 70.9696 44.1012C67.4947 44.0668 64.0479 44.727 60.8316 46.0432C57.6153 47.3594 54.6943 49.3049 52.24 51.7656C49.7858 54.2263 47.8478 57.1525 46.5399 60.3726C45.2319 63.5926 44.5803 67.0416 44.6233 70.5169ZM147.501 44.399C151.557 43.142 634.238 42.7488 642.369 44.0535V141.126H636.174C447.943 141.126 259.713 141.162 71.4819 141.233C39.441 141.275 8.41273 119.131 1.25878 84.1657C-6.72911 45.0961 20.2784 6.28266 59.789 0.390643C92.634 -4.50646 123.359 12.5262 136.284 43.148C141.645 55.8911 141.395 69.0395 137.321 82.152C136.725 84.0048 136.028 85.81 135.171 88.2168C144.278 80.1145 148.448 64.7977 147.501 44.399Z" fill="#E41613"/>
<path d="M570.728 366.887C570.168 428.446 569.608 488.838 569.054 549.236L567.488 549.629L495.412 412.766L570.728 366.887Z" fill="#E41613"/>
<path d="M528.203 530.451L567.625 553.585L412.9 642.608L258.152 553.597L413.103 462.702C426.243 470.983 438.859 477.983 451.261 485.341C464.056 492.913 476.875 500.39 489.729 507.914C502.584 515.438 515.385 522.927 528.203 530.451Z" fill="#E41613"/>
<path d="M412.888 238.377C440.003 297.154 466.558 354.734 493.268 412.641L412.817 461.725C385.607 444.806 359.106 429.048 332.539 412.593C359.201 354.793 385.732 297.297 412.888 238.377Z" fill="#E41613"/>
<path d="M413.764 462.321L413.109 462.708L412.179 462.113L412.817 461.725L413.764 462.321Z" fill="black"/>
<path d="M256.716 366.899L332.033 412.772L259.695 550.171L258.414 549.909C257.854 489.35 257.294 428.792 256.716 366.899Z" fill="#E41613"/>
<path d="M163.602 159.284C164.877 163.425 165.21 626.028 163.894 633.338H68.3666C67.0681 629.168 66.7285 166.606 68.0867 159.29L163.602 159.284Z" fill="#E41613"/>
</g>
<defs>
<clipPath id="clip0_9_4">
<rect width="808" height="884" fill="white"/>
</clipPath>
</defs>
</svg>
